<svg xmlns="http://www.w3.org/2000/svg" viewBox="0 0 189.67 45.4"><defs><style>.cls-1{fill:green;}</style></defs><title>Asset 4</title><g id="Layer_2" data-name="Layer 2"><g id="Layer_1-2" data-name="Layer 1"><path class="cls-1" d="M0,.77c8.5.63,12.75.91,21.25,1.4V10.8L7.94,10.6v6.9c4.94-.11,7.41-.17,12.35-.26v8.28c-4.94.31-7.41.47-12.35.83V34.9c5.48-.66,8.22-1,13.7-1.51v9.13c-8.66,1.27-13,2-21.64,3.66Z" transform="translate(0 -0.77)"/><path class="cls-1" d="M23.39,2.29c3.32.19,5,.27,8.3.44C34,13.9,35.16,19.33,37.47,30,39.76,19,40.9,13.68,43.19,3.24c3.22.13,4.84.19,8.06.3Q46.32,21.72,41.7,40c-3.44.37-5.16.57-8.61,1Q28,21.7,23.39,2.29Z" transform="translate(0 -0.77)"/><path class="cls-1" d="M53.83,3.62c8.53.27,12.79.37,21.33.5v7.14L61.81,11.2v5.46l12.38-.08v6.83c-5,.08-7.43.14-12.38.27v6.79c5.49-.25,8.24-.35,13.73-.49v7.57c-8.69.33-13,.59-21.71,1.3Z" transform="translate(0 -0.77)"/><path class="cls-1" d="M79.94,37.4V4.18c5.31.06,8,.08,13.28.08a15.58,15.58,0,0,1,5.65.81,6.35,6.35,0,0,1,3.15,3,11,11,0,0,1,1.2,5.34,11.23,11.23,0,0,1-.92,4.74,8.36,8.36,0,0,1-2.52,3.22,8.21,8.21,0,0,1-2.8,1.3,7.42,7.42,0,0,1,2.08,1.22,9.46,9.46,0,0,1,1.27,1.74,13.31,13.31,0,0,1,1.12,2.06c1.54,3.83,2.32,5.75,3.86,9.62-3.6-.08-5.4-.1-9-.11-1.7-4-2.56-6-4.26-10.06A7.73,7.73,0,0,0,90.6,24.6a2.86,2.86,0,0,0-1.95-.76h-.71V37.23C84.74,37.27,83.14,37.31,79.94,37.4Zm8-19.79H91.3a9.85,9.85,0,0,0,2.11-.46,2.1,2.1,0,0,0,1.3-1,3.65,3.65,0,0,0,.5-1.91,3.47,3.47,0,0,0-.79-2.44,4,4,0,0,0-3-.86h-3.5Z" transform="translate(0 -0.77)"/><path class="cls-1" d="M107.9,4.2l8-.11V15.83l8.73,0v-12c3.21-.07,4.81-.11,8-.21V38.63c-3.21-.24-4.81-.35-8-.54V24.27c-3.49-.1-5.24-.14-8.73-.2V37.64c-3.19-.13-4.79-.19-8-.27Z" transform="translate(0 -0.77)"/><path class="cls-1" d="M136.94,21.3c0-5.78,1.17-10.27,3.52-13.57a12.18,12.18,0,0,1,9.84-5.3c4.31-.2,7.63,1.31,10,4.71s3.5,8.38,3.5,14.75a34,34,0,0,1-1.53,11.22,12.73,12.73,0,0,1-4.42,6.32A10,10,0,0,1,150.62,41a14.29,14.29,0,0,1-7.25-2.73,15.59,15.59,0,0,1-4.65-6.48A27.06,27.06,0,0,1,136.94,21.3Zm8,.27q0,5.52,1.46,8a4.91,4.91,0,0,0,4,2.73,4,4,0,0,0,4-2.14c.94-1.56,1.42-4.49,1.42-8.76,0-3.58-.5-6.21-1.48-7.86a4.4,4.4,0,0,0-7.88,0C145.42,15.21,144.93,17.86,144.93,21.57Z" transform="translate(0 -0.77)"/><path class="cls-1" d="M165.32,2.33c9.73-.53,14.6-.84,24.35-1.56V12l-8.17.07V44.7c-3.21-.55-4.81-.81-8-1.31V12.11l-8.16.06Z" transform="translate(0 -0.77)"/></g></g></svg>